<?xml version="1.0" encoding="utf-8"?>
<!-- Generator: Adobe Illustrator 17.0.2, SVG Export Plug-In . SVG Version: 6.00 Build 0)  -->
<!DOCTYPE svg PUBLIC "-//W3C//DTD SVG 1.1//EN" "http://www.w3.org/Graphics/SVG/1.1/DTD/svg11.dtd">
<svg version="1.1" id="Layer_1" xmlns="http://www.w3.org/2000/svg" xmlns:xlink="http://www.w3.org/1999/xlink" x="0px" y="0px"
	 width="420.694px" height="99.68px" viewBox="0 0 420.694 99.68" enable-background="new 0 0 420.694 99.68" xml:space="preserve">
<linearGradient id="SVGID_1_" gradientUnits="userSpaceOnUse" x1="0" y1="49.8398" x2="420.6943" y2="49.8398">
	<stop  offset="0" style="stop-color:#F89728"/>
	<stop  offset="0.33" style="stop-color:#ED1B7C"/>
	<stop  offset="0.66" style="stop-color:#83469B"/>
	<stop  offset="1" style="stop-color:#47BEA8"/>
</linearGradient>
<path fill="url(#SVGID_1_)" d="M36.12,26.32c16.66,0,25.06,9.94,25.06,9.94l-3.64,4.76c0,0-7.98-8.96-21.42-8.96
	c-16.38,0-29.96,12.18-29.96,31.08c0,18.62,13.58,30.8,29.96,30.8c15.4,0,23.38-10.08,23.38-10.08l3.08,4.9
	c0,0-9.1,10.92-26.459,10.92C16.38,99.68,0,85.399,0,63.14S16.66,26.32,36.12,26.32z M104.301,26.32
	c20.02,0,36.26,15.82,36.26,36.26c0,20.86-16.24,37.1-36.26,37.1s-36.26-16.24-36.26-37.1C68.041,42.14,84.281,26.32,104.301,26.32z
	 M104.301,93.939c16.66,0,30.1-13.58,30.1-31.36c0-17.36-13.44-30.52-30.1-30.52c-16.66,0-30.1,13.16-30.1,30.52
	C74.201,80.359,87.641,93.939,104.301,93.939z M150.92,0h5.88v82.04c0,9.8,5.04,10.92,8.26,10.92c1.12,0,2.101-0.14,2.101-0.14v5.46
	c0,0-1.261,0.28-2.521,0.28c-4.06,0-13.72-1.54-13.72-14.7V0z M206.499,26.32c20.021,0,36.26,15.82,36.26,36.26
	c0,20.86-16.239,37.1-36.26,37.1c-20.02,0-36.26-16.24-36.26-37.1C170.239,42.14,186.479,26.32,206.499,26.32z M206.499,93.939
	c16.66,0,30.101-13.58,30.101-31.36c0-17.36-13.44-30.52-30.101-30.52c-16.659,0-30.1,13.16-30.1,30.52
	C176.399,80.359,189.84,93.939,206.499,93.939z M251.579,85.12c0,0,7.84,8.82,21.7,8.82c8.539,0,16.1-4.48,16.1-13.16
	c0-17.78-38.5-12.74-38.5-35.56c0-12.46,10.5-18.9,22.4-18.9c14.279,0,20.72,7.56,20.72,7.56l-3.5,4.76c0,0-5.74-6.58-17.64-6.58
	c-7.98,0-15.82,3.64-15.82,12.74c0,18.2,38.5,12.74,38.5,35.98c0,11.2-9.521,18.9-22.4,18.9c-16.939,0-25.34-10.08-25.34-10.08
	L251.579,85.12z M306.457,89.18h8.54V98h-8.54V89.18z M330.677,0h7v10.22h-7V0z M331.237,28h5.88v70h-5.88V28z M384.435,26.32
	c20.021,0,36.26,15.82,36.26,36.26c0,20.86-16.239,37.1-36.26,37.1c-20.02,0-36.26-16.24-36.26-37.1
	C348.175,42.14,364.415,26.32,384.435,26.32z M384.435,93.939c16.66,0,30.101-13.58,30.101-31.36c0-17.36-13.44-30.52-30.101-30.52
	c-16.659,0-30.1,13.16-30.1,30.52C354.335,80.359,367.775,93.939,384.435,93.939z"/>
</svg>
